<svg xmlns="http://www.w3.org/2000/svg" viewBox="0 0 92 38" fill="none" shape-rendering="auto" aria-hidden="true"><!-- Generated by DiceBear (https://www.dicebear.com) --><defs><g id="mouth-concerned-310be519"><path fill-rule="evenodd" clip-rule="evenodd" d="M27.12 23.87a19 19 0 0 1 37.77.09c.08.77-.77 2.04-1.85 2.04H29.1c-1.1 0-2.1-1.18-1.98-2.13" fill="black" fill-opacity=".7"/><path d="M61.59 26H30.4A11 11 0 0 1 46 19.2 11 11 0 0 1 61.6 26" fill="#FF4F6D"/><path d="M58.57 11.75A5 5 0 0 1 57 12H36q-1.22-.02-2.24-.53A19 19 0 0 1 46 7c4.82 0 9.22 1.8 12.57 4.75" fill="white"/></g><clipPath id="clip-310be519"><rect width="92" height="38" rx="0" ry="0"/></clipPath></defs><g clip-path="url(#clip-310be519)"><use href="#mouth-concerned-310be519"/></g></svg>