<svg width="128" height="128" viewBox="0 0 128 128" fill="none" xmlns="http://www.w3.org/2000/svg">
<g filter="url(#filter0_f_102_1030)" style="mix-blend-mode:soft-light">
<path d="M37.8885 66H27.1115C22.6317 66 19 69.5817 19 74C19 78.4183 22.6317 82 27.1115 82H37.8885C42.3683 82 46 78.4183 46 74C46 69.5817 42.3683 66 37.8885 66Z" fill="#C140A3"/>
</g>
<g filter="url(#filter1_f_102_1030)" style="mix-blend-mode:soft-light">
<path d="M99.9043 66H89.0957C84.6246 66 81 69.5785 81 73.9929V74.0071C81 78.4215 84.6246 82 89.0957 82H99.9043C104.375 82 108 78.4215 108 74.0071V73.9929C108 69.5785 104.375 66 99.9043 66Z" fill="#C140A3"/>
</g>
<path d="M64.5423 101H63.789C54.0857 100.782 42.994 95.7096 40.0845 84.8527C40.0178 84.6722 39.9901 84.48 40.0031 84.2884C40.0162 84.0968 40.0697 83.9099 40.1603 83.7398C40.2509 83.5697 40.3766 83.4201 40.5293 83.3005C40.6819 83.1809 40.8583 83.0939 41.0471 83.0452C41.2359 82.9965 41.4329 82.987 41.6256 83.0175C41.8183 83.0479 42.0024 83.1176 42.1662 83.2221C42.3299 83.3265 42.4698 83.4635 42.5767 83.6241C42.6837 83.7848 42.7554 83.9656 42.7873 84.1551C45.3423 93.6167 55.2081 98.0496 63.8481 98.2385C72.0893 98.3984 82.8856 94.3977 86.312 83.6716C86.4917 83.4182 86.7488 83.2278 87.046 83.128C87.3431 83.0281 87.6649 83.0241 87.9645 83.1165C88.2641 83.2088 88.5261 83.3927 88.7123 83.6415C88.8985 83.8903 88.9993 84.191 89 84.5C85.8542 94.3105 76.2985 101 64.5423 101Z" fill="black"/>
<path d="M97.4423 63.9193H90.8421C81.1178 63.9193 81.1178 63.9927 81.1178 54.195V50.8949C81.1217 47.4418 82.4951 44.1313 84.9368 41.6896C87.3786 39.2479 90.6891 37.8744 94.1422 37.8705C97.5953 37.8744 100.906 39.2479 103.348 41.6896C105.789 44.1313 107.163 47.4418 107.167 50.8949V54.2684C107.137 63.9927 107.137 63.9193 97.4423 63.9193Z" fill="black"/>
<path d="M89.7692 47.5158C91.0305 47.5158 92.053 46.4933 92.053 45.232C92.053 43.9707 91.0305 42.9482 89.7692 42.9482C88.5079 42.9482 87.4854 43.9707 87.4854 45.232C87.4854 46.4933 88.5079 47.5158 89.7692 47.5158Z" fill="white"/>
<path opacity="0.1" d="M93.9999 56.3142C96.9349 56.3142 99.3141 53.935 99.3141 51C99.3141 48.0651 96.9349 45.6859 93.9999 45.6859C91.065 45.6859 88.6858 48.0651 88.6858 51C88.6858 53.935 91.065 56.3142 93.9999 56.3142Z" fill="white"/>
<path d="M36.4423 63.9193H29.8421C20.1178 63.9193 20.1178 63.9927 20.1178 54.195V50.8949C20.1217 47.4418 21.4951 44.1313 23.9368 41.6896C26.3786 39.2479 29.6891 37.8744 33.1422 37.8705C36.5953 37.8744 39.9059 39.2479 42.3476 41.6896C44.7893 44.1313 46.1627 47.4418 46.1666 50.8949V54.2684C46.1373 63.9927 46.1373 63.9193 36.4423 63.9193Z" fill="black"/>
<path d="M28.8737 47.5336C30.1374 47.5336 31.1618 46.5092 31.1618 45.2456C31.1618 43.9819 30.1374 42.9575 28.8737 42.9575C27.61 42.9575 26.5856 43.9819 26.5856 45.2456C26.5856 46.5092 27.61 47.5336 28.8737 47.5336Z" fill="white"/>
<path opacity="0.1" d="M33.1125 56.3486C36.0529 56.3486 38.4366 53.9649 38.4366 51.0244C38.4366 48.084 36.0529 45.7003 33.1125 45.7003C30.172 45.7003 27.7883 48.084 27.7883 51.0244C27.7883 53.9649 30.172 56.3486 33.1125 56.3486Z" fill="white"/>
<defs>
<filter id="filter0_f_102_1030" x="9" y="56" width="47" height="36" filterUnits="userSpaceOnUse" color-interpolation-filters="sRGB">
<feFlood flood-opacity="0" result="BackgroundImageFix"/>
<feBlend mode="normal" in="SourceGraphic" in2="BackgroundImageFix" result="shape"/>
<feGaussianBlur stdDeviation="5" result="effect1_foregroundBlur_102_1030"/>
</filter>
<filter id="filter1_f_102_1030" x="71" y="56" width="47" height="36" filterUnits="userSpaceOnUse" color-interpolation-filters="sRGB">
<feFlood flood-opacity="0" result="BackgroundImageFix"/>
<feBlend mode="normal" in="SourceGraphic" in2="BackgroundImageFix" result="shape"/>
<feGaussianBlur stdDeviation="5" result="effect1_foregroundBlur_102_1030"/>
</filter>
</defs>
</svg>
