<svg width="128" height="128" viewBox="0 0 128 128" fill="none" xmlns="http://www.w3.org/2000/svg">
<g filter="url(#filter0_i_102_742)">
<path d="M128 30.2436V97.7124C128.004 101.688 127.224 105.626 125.705 109.301C124.186 112.975 121.958 116.314 119.148 119.127C116.338 121.94 113.001 124.171 109.328 125.694C105.655 127.216 101.718 128 97.7417 128H30.273C22.2478 127.996 14.5522 124.807 8.87623 119.134C3.20021 113.461 0.00778584 105.767 1.42309e-05 97.7417V30.2729C-0.00384206 26.2976 0.776073 22.3605 2.29515 18.6868C3.81422 15.0132 6.04265 11.675 8.85297 8.86333C11.6633 6.05165 15.0003 3.82161 18.6733 2.30075C22.3462 0.779896 26.2829 -0.00192622 30.2583 3.56376e-06H97.7271C101.701 -0.00192302 105.636 0.778823 109.308 2.29766C112.979 3.81651 116.316 6.0437 119.127 8.85208C121.938 11.6605 124.169 14.995 125.691 18.6654C127.214 22.3358 127.998 26.27 128 30.2436Z" fill="#D9915B"/>
</g>
<g opacity="0.4" style="mix-blend-mode:soft-light">
<path d="M64.3033 49.8949L60.8125 68.2435L64.3033 71.0303V49.8949Z" fill="black"/>
</g>
<path d="M64.5423 101H63.789C54.0857 100.782 42.994 95.7096 40.0845 84.8527C40.0178 84.6722 39.9901 84.48 40.0031 84.2884C40.0162 84.0968 40.0697 83.9099 40.1603 83.7398C40.2509 83.5697 40.3766 83.4201 40.5293 83.3005C40.6819 83.1809 40.8583 83.0939 41.0471 83.0452C41.2359 82.9965 41.4329 82.987 41.6256 83.0175C41.8183 83.0479 42.0024 83.1176 42.1662 83.2221C42.3299 83.3265 42.4698 83.4635 42.5767 83.6241C42.6837 83.7848 42.7554 83.9656 42.7873 84.1551C45.3423 93.6167 55.2081 98.0496 63.8481 98.2385C72.0893 98.3984 82.8856 94.3977 86.312 83.6716C86.4917 83.4182 86.7488 83.2278 87.046 83.128C87.3431 83.0281 87.6649 83.0241 87.9645 83.1165C88.2641 83.2088 88.5261 83.3927 88.7123 83.6415C88.8985 83.8903 88.9993 84.191 89 84.5C85.8542 94.3105 76.2985 101 64.5423 101Z" fill="black"/>
<path d="M36.4109 64H29.823C20.117 64 20.117 64.0732 20.117 54.2939V50.2094C20.115 48.6068 20.429 47.0194 21.041 45.5382C21.653 44.057 22.551 42.7109 23.6836 41.577C24.8161 40.443 26.1611 39.5434 27.6416 38.9297C29.1221 38.3159 30.7091 38 32.3118 38H33.9221C35.5248 38 37.1118 38.3159 38.5923 38.9297C40.0728 39.5434 41.4178 40.443 42.5503 41.577C43.6829 42.7109 44.5809 44.057 45.1929 45.5382C45.8049 47.0194 46.1189 48.6068 46.1169 50.2094V54.3671C46.0877 64.0732 46.0877 64 36.4109 64Z" fill="black"/>
<path d="M28.8737 47.5336C30.1374 47.5336 31.1618 46.5092 31.1618 45.2456C31.1618 43.9819 30.1374 42.9575 28.8737 42.9575C27.61 42.9575 26.5856 43.9819 26.5856 45.2456C26.5856 46.5092 27.61 47.5336 28.8737 47.5336Z" fill="white"/>
<path opacity="0.1" d="M33.1125 56.3486C36.0529 56.3486 38.4366 53.9649 38.4366 51.0244C38.4366 48.084 36.0529 45.7003 33.1125 45.7003C30.172 45.7003 27.7883 48.084 27.7883 51.0244C27.7883 53.9649 30.172 56.3486 33.1125 56.3486Z" fill="white"/>
<path d="M82.7 57C82.5289 56.9982 82.3592 56.9685 82.1973 56.9121C81.9839 56.8453 81.7855 56.7361 81.6136 56.5908C81.4416 56.4455 81.2996 56.267 81.1955 56.0655C81.0914 55.864 81.0273 55.6435 81.007 55.4167C80.9867 55.1899 81.0105 54.9612 81.0771 54.7438C81.8905 51.9013 83.5951 49.4093 85.9296 47.6496C88.2642 45.8899 91.1 44.9596 94.0024 45.0013C96.9015 44.9742 99.7305 45.91 102.062 47.6676C104.394 49.4251 106.102 51.9089 106.928 54.7438C107.058 55.1848 107.011 55.6604 106.799 56.0666C106.586 56.4729 106.225 56.7768 105.793 56.9121C105.58 56.9821 105.355 57.0079 105.133 56.9881C104.91 56.9684 104.693 56.9033 104.495 56.7969C104.297 56.6904 104.122 56.5447 103.98 56.3683C103.838 56.1918 103.731 55.9882 103.668 55.7694C103.045 53.638 101.76 51.771 100.006 50.4497C98.2523 49.1285 96.125 48.4246 93.945 48.4442C91.7747 48.4373 89.6605 49.1471 87.9184 50.4674C86.1763 51.7877 84.8998 53.6477 84.2797 55.7694C84.1732 56.1158 83.9642 56.4201 83.6813 56.6404C83.3984 56.8608 83.0556 56.9864 82.7 57Z" fill="black"/>
<defs>
<filter id="filter0_i_102_742" x="0" y="0" width="128" height="128" filterUnits="userSpaceOnUse" color-interpolation-filters="sRGB">
<feFlood flood-opacity="0" result="BackgroundImageFix"/>
<feBlend mode="normal" in="SourceGraphic" in2="BackgroundImageFix" result="shape"/>
<feColorMatrix in="SourceAlpha" type="matrix" values="0 0 0 0 0 0 0 0 0 0 0 0 0 0 0 0 0 0 127 0" result="hardAlpha"/>
<feOffset dx="-6" dy="-6"/>
<feComposite in2="hardAlpha" operator="arithmetic" k2="-1" k3="1"/>
<feColorMatrix type="matrix" values="0 0 0 0 0 0 0 0 0 0 0 0 0 0 0 0 0 0 0.04 0"/>
<feBlend mode="normal" in2="shape" result="effect1_innerShadow_102_742"/>
</filter>
</defs>
</svg>
