<svg xmlns="http://www.w3.org/2000/svg" viewBox="0 0 84 36.27" fill="none" shape-rendering="auto" aria-hidden="true"><!-- Generated by DiceBear (https://www.dicebear.com) --><defs><g id="eyes-xDizzy-310be519"><path d="M20.5 22.7 15 17.2l-5.5 5.5c-.4.4-1.1.4-1.6 0l-1.6-1.6c-.4-.4-.4-1.1 0-1.6l5.5-5.5-5.5-5.5c-.4-.5-.4-1.2 0-1.6l1.6-1.6c.4-.4 1.1-.4 1.6 0l5.5 5.5 5.5-5.5c.4-.4 1.1-.4 1.6 0l1.6 1.6c.4.4.4 1.1 0 1.6L18.2 14l5.5 5.5c.4.4.4 1.1 0 1.6l-1.6 1.6c-.4.4-1.1.4-1.6 0m54 0L69 17.2l-5.5 5.5c-.4.4-1.1.4-1.6 0l-1.6-1.6c-.4-.4-.4-1.1 0-1.6l5.5-5.5-5.5-5.5c-.4-.5-.4-1.2 0-1.6l1.6-1.6c.4-.4 1.1-.4 1.6 0l5.5 5.5 5.5-5.5c.4-.4 1.1-.4 1.6 0l1.6 1.6c.4.4.4 1.1 0 1.6L72.2 14l5.5 5.5c.4.4.4 1.1 0 1.6l-1.6 1.6c-.4.4-1.1.4-1.6 0" fill="black" fill-opacity=".6"/></g><clipPath id="clip-310be519"><rect width="84" height="36.27" rx="0" ry="0"/></clipPath></defs><g clip-path="url(#clip-310be519)"><use href="#eyes-xDizzy-310be519"/></g></svg>