<svg xmlns="http://www.w3.org/2000/svg" viewBox="0 0 96.27 24" fill="none" shape-rendering="auto" aria-hidden="true"><!-- Generated by DiceBear (https://www.dicebear.com) --><defs><g id="eyebrows-sadConcernedNatural-310be519"><path fill-rule="evenodd" clip-rule="evenodd" d="m23.37 20.42-.91.4c-5.24 2.09-13.2 1.21-18.06-1.12-.56-.27-.18-1.15.4-1.1 14.92 1.14 24.97-8.15 28.38-14.45.1-.18.4-.2.48-.03 2.31 5.32-4.45 13.98-10.3 16.3m49.54 0 .9.4c5.26 2.09 13.2 1.2 18.06-1.12.57-.27.18-1.15-.4-1.1-14.92 1.14-24.96-8.15-28.38-14.45-.1-.18-.4-.2-.48-.03-2.3 5.32 4.45 13.98 10.3 16.3" fill="black" fill-opacity=".6"/></g><clipPath id="clip-310be519"><rect width="96.27" height="24" rx="0" ry="0"/></clipPath></defs><g clip-path="url(#clip-310be519)"><use href="#eyebrows-sadConcernedNatural-310be519"/></g></svg>