<svg xmlns="http://www.w3.org/2000/svg" viewBox="0 0 96.27 24" fill="none" shape-rendering="auto" aria-hidden="true"><!-- Generated by DiceBear (https://www.dicebear.com) --><defs><g id="eyebrows-sadConcerned-310be519"><path d="M30.17 5.6c-1.48 8.38-14.1 14.17-23.24 10.42a2.04 2.04 0 0 0-2.63 1c-.44.97.03 2.1 1.05 2.5 11.44 4.7 26.83-2.37 28.76-13.3a1.9 1.9 0 0 0-1.64-2.2 2 2 0 0 0-2.3 1.57m35.93 0c1.5 8.39 14.1 14.18 23.25 10.43 1.01-.41 2.2.03 2.62 1s-.03 2.1-1.04 2.5c-11.45 4.7-26.84-2.37-28.77-13.3a1.9 1.9 0 0 1 1.65-2.2 2 2 0 0 1 2.32 1.57" fill="black" fill-opacity=".6"/></g><clipPath id="clip-310be519"><rect width="96.27" height="24" rx="0" ry="0"/></clipPath></defs><g clip-path="url(#clip-310be519)"><use href="#eyebrows-sadConcerned-310be519"/></g></svg>